<svg width="100%" height="100%" id="svg" viewBox="0 0 1440 590" xmlns="http://www.w3.org/2000/svg" class="transition duration-300 ease-in-out delay-150"><defs><linearGradient id="gradient" x1="0%" y1="50%" x2="100%" y2="50%"><stop offset="5%" stop-color="#0693e3"></stop><stop offset="95%" stop-color="#8ED1FC"></stop></linearGradient></defs><path d="M 0,600 L 0,150 C 108.44019138755979,125.85645933014354 216.88038277511959,101.71291866028709 320,109 C 423.1196172248804,116.28708133971291 520.9186602870814,155.00478468899522 598,154 C 675.0813397129186,152.99521531100478 731.4449760765551,112.26794258373207 826,90 C 920.5550239234449,67.73205741626793 1053.3014354066986,63.92344497607657 1162,77 C 1270.6985645933014,90.07655502392343 1355.3492822966507,120.03827751196172 1440,150 L 1440,600 L 0,600 Z" stroke="none" stroke-width="0" fill="url(#gradient)" fill-opacity="0.53" class="transition-all duration-300 ease-in-out delay-150 path-0"></path><defs><linearGradient id="gradient" x1="0%" y1="50%" x2="100%" y2="50%"><stop offset="5%" stop-color="#0693e3"></stop><stop offset="95%" stop-color="#8ED1FC"></stop></linearGradient></defs><path d="M 0,600 L 0,350 C 85.4354066985646,363.99043062200957 170.8708133971292,377.98086124401914 268,365 C 365.1291866028708,352.01913875598086 473.9521531100478,312.066985645933 587,292 C 700.0478468899522,271.933014354067 817.3205741626793,271.7511961722488 901,280 C 984.6794258373207,288.2488038277512 1034.7655502392345,304.92822966507174 1119,318 C 1203.2344497607655,331.07177033492826 1321.6172248803828,340.53588516746413 1440,350 L 1440,600 L 0,600 Z" stroke="none" stroke-width="0" fill="url(#gradient)" fill-opacity="1" class="transition-all duration-300 ease-in-out delay-150 path-1"></path></svg>